# xmcd
#
# Track frame offsets:
#	150
#	14215
#	25759
#	40100
#	53524
#	66745
#	79135
#	91976
#	104201
#	114097
#	126865
#	141383
#	152911
#	162855
#	181470
#	194168
#	211988
#	227778
#
# Disc length: 3233 seconds
#
# Revision: 0
# Processed by: cddbd v1.4PL0 Copyright (c) Steve Scherf et al.
# Submitted via: dBpowerAMP V4.0
#
DISCID=080c9f12
DTITLE=Various Artist - The Blues Box-Disk 2
DYEAR=1900
DGENRE=Blues
TTITLE0=Jimmy Rodgers/Thats All Right
TTITLE1=Lewis-Johnson Combo/I Feel So Worried
TTITLE2=Little Milton/Alone And Blue
TTITLE3=Robert Johnson/Dust My Broom
TTITLE4=Arthur'Big Boy'Crudup/Thats All Right Mama
TTITLE5=Sonny Terry/Beer Garden Blues
TTITLE6=Jimmy Reed/Big Boss Man
TTITLE7=Willie Nix/Seems Like A Million Years
TTITLE8=J.B.Lenior/Oh Babe
TTITLE9=Blind Boy Fuller/Truckin My Blues Away
TTITLE10=Brownie McGhee and Sonny Terry/Baby Please Dont Go
TTITLE11=Muddy Waters/Little Anna Mae
TTITLE12=John Lee Hooker/Dimples
TTITLE13=Missippi John Hurt/Frankie and Albert
TTITLE14=Dr.Ross/Come Back Baby
TTITLE15=Memphis Slim/Stack Alee
TTITLE16=Big Joe Williams/Hand Me Down My Old Walking
TTITLE17=Howlin Wolf/My Troubles And Me
EXTD=
EXTT0=
EXTT1=
EXTT2=
EXTT3=
EXTT4=
EXTT5=
EXTT6=
EXTT7=
EXTT8=
EXTT9=
EXTT10=
EXTT11=
EXTT12=
EXTT13=
EXTT14=
EXTT15=
EXTT16=
EXTT17=
PLAYORDER=
